<svg xmlns="http://www.w3.org/2000/svg" viewBox="0 0 512 512" width="512" height="512">
  <!-- Just the "m" character as path, no background -->
  <g transform="translate(106, 148)">
    <path d="M 28 220 L 28 46 C 28 44 27 42 25 42 L 8 42 C 6 42 5 41 5 39 L 5 36 C 5 34 6 33 8 33 L 28 33 C 38 33 44 33 48 33 C 50 33 51 34 51 36 L 51 56 C 64 40 82 30 104 30 C 128 30 144 42 150 62 C 164 42 184 30 208 30 C 238 30 254 48 254 82 L 254 220 L 272 220 C 274 220 275 221 275 223 L 275 226 C 275 228 274 229 272 229 L 222 229 C 220 229 219 228 219 226 L 219 223 C 219 221 220 220 222 220 L 232 220 L 232 84 C 232 56 220 42 198 42 C 176 42 156 56 144 76 C 144 78 144 80 144 82 L 144 220 L 164 220 C 166 220 167 221 167 223 L 167 226 C 167 228 166 229 164 229 L 114 229 C 112 229 111 228 111 226 L 111 223 C 111 221 112 220 114 220 L 122 220 L 122 84 C 122 56 110 42 88 42 C 68 42 50 56 42 74 C 42 76 42 78 42 82 L 42 220 C 42 220 48 220 50 220 L 60 220 C 62 220 63 221 63 223 L 63 226 C 63 228 62 229 60 229 L 8 229 C 6 229 5 228 5 226 L 5 223 C 5 221 6 220 8 220 Z" fill="#1A1A1A"/>
  </g>
</svg>
