<svg xmlns="http://www.w3.org/2000/svg" viewBox="0 0 400 90" width="400" height="90">
  <defs>
    <!-- 3D Heart gradient -->
    <linearGradient id="hg" x1="0%" y1="0%" x2="80%" y2="100%">
      <stop offset="0%" stop-color="#F4ADA4"/>
      <stop offset="50%" stop-color="#E8998D"/>
      <stop offset="100%" stop-color="#C97856"/>
    </linearGradient>
    <!-- Heart highlight -->
    <radialGradient id="hs" cx="30%" cy="25%" r="45%">
      <stop offset="0%" stop-color="#FFFFFF" stop-opacity="0.5"/>
      <stop offset="100%" stop-color="#F4ADA4" stop-opacity="0"/>
    </radialGradient>
  </defs>

  <!-- All letters use Didot-style paths - properly kerned -->
  
  <!-- "m" at x=0 -->
  <g transform="translate(0, 22) scale(0.32)">
    <path d="M 28 200 L 28 42 C 28 40 27 38 25 38 L 8 38 C 6 38 5 37 5 35 L 5 32 C 5 30 6 29 8 29 L 28 29 C 38 29 44 29 48 29 C 50 29 51 30 51 32 L 51 52 C 64 36 82 26 104 26 C 128 26 144 38 150 58 C 164 38 184 26 208 26 C 238 26 254 44 254 78 L 254 200 L 272 200 C 274 200 275 201 275 203 L 275 206 C 275 208 274 209 272 209 L 222 209 C 220 209 219 208 219 206 L 219 203 C 219 201 220 200 222 200 L 232 200 L 232 80 C 232 52 220 38 198 38 C 176 38 156 52 144 72 C 144 74 144 76 144 78 L 144 200 L 164 200 C 166 200 167 201 167 203 L 167 206 C 167 208 166 209 164 209 L 114 209 C 112 209 111 208 111 206 L 111 203 C 111 201 112 200 114 200 L 122 200 L 122 80 C 122 52 110 38 88 38 C 68 38 50 52 42 70 C 42 72 42 74 42 78 L 42 200 C 42 200 48 200 50 200 L 60 200 C 62 200 63 201 63 203 L 63 206 C 63 208 62 209 60 209 L 8 209 C 6 209 5 208 5 206 L 5 203 C 5 201 6 200 8 200 Z" fill="#1A1A1A"/>
  </g>

  <!-- "i" stem at x=95 (no dot) -->
  <g transform="translate(95, 22) scale(0.32)">
    <path d="M 18 200 L 18 42 C 18 40 17 38 15 38 L 4 38 C 2 38 1 37 1 35 L 1 32 C 1 30 2 29 4 29 L 18 29 C 24 29 30 29 34 29 C 36 29 37 30 37 32 L 37 200 L 52 200 C 54 200 55 201 55 203 L 55 206 C 55 208 54 209 52 209 L 4 209 C 2 209 1 208 1 206 L 1 203 C 1 201 2 200 4 200 Z" fill="#1A1A1A"/>
  </g>

  <!-- 3D Heart (dot for "i") -->
  <path d="M 110.5 8 C 110.5 4.5 113 2 116 2 C 119 2 121.5 4.5 121.5 8 C 121.5 4.5 124 2 127 2 C 130 2 132.5 4.5 132.5 8 C 132.5 14 121.5 20 121.5 20 C 121.5 20 110.5 14 110.5 8 Z" fill="url(#hg)"/>
  <path d="M 110.5 8 C 110.5 4.5 113 2 116 2 C 119 2 121.5 4.5 121.5 8 C 121.5 4.5 124 2 127 2 C 130 2 132.5 4.5 132.5 8 C 132.5 14 121.5 20 121.5 20 C 121.5 20 110.5 14 110.5 8 Z" fill="url(#hs)"/>

  <!-- "a" at x=130 -->
  <g transform="translate(130, 22) scale(0.32)">
    <path d="M 64 209 C 40 209 20 196 20 172 C 20 140 52 132 90 130 L 90 108 C 90 62 78 38 52 38 C 34 38 22 48 16 62 C 15 64 13 65 11 64 L 9 63 C 7 62 6 60 7 58 C 16 40 32 26 56 26 C 86 26 108 46 108 100 L 108 188 C 108 196 112 200 118 200 L 126 200 C 128 200 129 201 129 203 L 129 206 C 129 208 128 209 126 209 L 108 209 C 100 209 94 206 92 198 C 82 208 72 209 64 209 Z M 90 140 C 58 142 40 150 40 172 C 40 192 54 200 68 200 C 78 200 86 196 90 190 Z" fill="#1A1A1A"/>
  </g>

  <!-- "m" at x=180 -->
  <g transform="translate(180, 22) scale(0.32)">
    <path d="M 28 200 L 28 42 C 28 40 27 38 25 38 L 8 38 C 6 38 5 37 5 35 L 5 32 C 5 30 6 29 8 29 L 28 29 C 38 29 44 29 48 29 C 50 29 51 30 51 32 L 51 52 C 64 36 82 26 104 26 C 128 26 144 38 150 58 C 164 38 184 26 208 26 C 238 26 254 44 254 78 L 254 200 L 272 200 C 274 200 275 201 275 203 L 275 206 C 275 208 274 209 272 209 L 222 209 C 220 209 219 208 219 206 L 219 203 C 219 201 220 200 222 200 L 232 200 L 232 80 C 232 52 220 38 198 38 C 176 38 156 52 144 72 C 144 74 144 76 144 78 L 144 200 L 164 200 C 166 200 167 201 167 203 L 167 206 C 167 208 166 209 164 209 L 114 209 C 112 209 111 208 111 206 L 111 203 C 111 201 112 200 114 200 L 122 200 L 122 80 C 122 52 110 38 88 38 C 68 38 50 52 42 70 C 42 72 42 74 42 78 L 42 200 C 42 200 48 200 50 200 L 60 200 C 62 200 63 201 63 203 L 63 206 C 63 208 62 209 60 209 L 8 209 C 6 209 5 208 5 206 L 5 203 C 5 201 6 200 8 200 Z" fill="#1A1A1A"/>
  </g>

  <!-- "o" at x=275 -->
  <g transform="translate(275, 22) scale(0.32)">
    <path d="M 60 209 C 26 209 4 184 4 118 C 4 52 26 26 60 26 C 94 26 116 52 116 118 C 116 184 94 209 60 209 Z M 60 38 C 34 38 24 62 24 118 C 24 174 34 200 60 200 C 86 200 96 174 96 118 C 96 62 86 38 60 38 Z" fill="#1A1A1A"/>
  </g>
</svg>
